<svg width="6" height="5" viewBox="0 0 6 5" fill="none" xmlns="http://www.w3.org/2000/svg">
<path d="M2.75297 4.37104C2.7805 4.41102 2.81733 4.4437 2.86029 4.46628C2.90325 4.48886 2.95106 4.50066 2.99959 4.50066C3.04813 4.50066 3.09594 4.48886 3.1389 4.46628C3.18186 4.4437 3.21869 4.41102 3.24621 4.37104L5.94642 0.470737C5.97768 0.425751 5.99601 0.373059 5.99942 0.318387C6.00283 0.263715 5.99119 0.209153 5.96577 0.160631C5.94035 0.112108 5.90212 0.0714801 5.85523 0.0431609C5.80834 0.0148416 5.75458 -8.59099e-05 5.6998 3.71925e-07H0.299382C0.244731 0.000226112 0.191175 0.0153456 0.144474 0.0437327C0.0977731 0.0721198 0.059694 0.112701 0.0343318 0.161111C0.00896956 0.209521 -0.00271616 0.26393 0.000531281 0.318485C0.00377872 0.37304 0.0218365 0.425677 0.0527626 0.470737L2.75297 4.37104Z" fill="#6B7280"/>
</svg>
